<svg width="177" height="177" viewBox="0 0 177 177" fill="none" xmlns="http://www.w3.org/2000/svg">
<path fill-rule="evenodd" clip-rule="evenodd" d="M88.5 177C137.377 177 177 137.377 177 88.5C177 39.6228 137.377 0 88.5 0C39.6228 0 0 39.6228 0 88.5C0 137.377 39.6228 177 88.5 177ZM49.9817 45.032C48.6149 43.6651 46.3988 43.6651 45.032 45.032C43.6651 46.3988 43.6651 48.6149 45.032 49.9817L83.7422 88.6919L45.032 127.402C43.6651 128.769 43.6651 130.985 45.032 132.352C46.3988 133.719 48.6149 133.719 49.9817 132.352L88.6919 93.6416L127.402 132.352C128.769 133.719 130.985 133.719 132.352 132.352C133.719 130.985 133.719 128.769 132.352 127.402L93.6416 88.6919L132.352 49.9817C133.719 48.6149 133.719 46.3988 132.352 45.032C130.985 43.6651 128.769 43.6651 127.402 45.032L88.6919 83.7422L49.9817 45.032Z" fill="white"/>
</svg>
